<svg width="44" height="44" viewBox="0 0 44 44" fill="none" xmlns="http://www.w3.org/2000/svg">
<rect width="44" height="44" rx="22" fill="#032F32"/>
<path d="M22 21.5C21.337 21.5 20.7011 21.2366 20.2322 20.7678C19.7634 20.2989 19.5 19.663 19.5 19C19.5 18.337 19.7634 17.7011 20.2322 17.2322C20.7011 16.7634 21.337 16.5 22 16.5C22.663 16.5 23.2989 16.7634 23.7678 17.2322C24.2366 17.7011 24.5 18.337 24.5 19C24.5 19.3283 24.4353 19.6534 24.3097 19.9567C24.1841 20.26 23.9999 20.5356 23.7678 20.7678C23.5356 20.9999 23.26 21.1841 22.9567 21.3097C22.6534 21.4353 22.3283 21.5 22 21.5ZM22 12C20.1435 12 18.363 12.7375 17.0503 14.0503C15.7375 15.363 15 17.1435 15 19C15 24.25 22 32 22 32C22 32 29 24.25 29 19C29 17.1435 28.2625 15.363 26.9497 14.0503C25.637 12.7375 23.8565 12 22 12Z" fill="white"/>
</svg>
