<svg width="63" height="31" viewBox="0 0 63 31" fill="none" xmlns="http://www.w3.org/2000/svg">
<path d="M0.36 15.5209C0.12 15.5209 0 15.4435 0 15.2886C0 15.1619 0.104 15.0774 0.312 15.0352L0.864 14.9507C1.2 14.8944 1.416 14.817 1.512 14.7184C1.624 14.6199 1.68 14.4228 1.68 14.1272V1.71046C1.68 1.41483 1.624 1.21774 1.512 1.11919C1.416 1.02065 1.2 0.943219 0.864 0.886908L0.312 0.80244C0.104 0.760206 0 0.675739 0 0.549037C0 0.394181 0.12 0.316752 0.36 0.316752H4.752C4.992 0.316752 5.112 0.40122 5.112 0.570155C5.112 0.696856 5.024 0.774284 4.848 0.80244L4.2 0.886908C3.864 0.929141 3.64 1.00657 3.528 1.11919C3.432 1.23182 3.384 1.43595 3.384 1.73158V7.03191C3.384 7.229 3.496 7.32755 3.72 7.32755H8.472C8.696 7.32755 8.808 7.229 8.808 7.03191V1.73158C8.808 1.43595 8.752 1.23182 8.64 1.11919C8.544 1.00657 8.328 0.929141 7.992 0.886908L7.344 0.80244C7.168 0.774284 7.08 0.696856 7.08 0.570155C7.08 0.40122 7.2 0.316752 7.44 0.316752H11.832C12.072 0.316752 12.192 0.394181 12.192 0.549037C12.192 0.675739 12.088 0.760206 11.88 0.80244L11.328 0.886908C10.992 0.943219 10.768 1.02065 10.656 1.11919C10.56 1.21774 10.512 1.41483 10.512 1.71046V14.1272C10.512 14.4228 10.56 14.6199 10.656 14.7184C10.768 14.817 10.992 14.8944 11.328 14.9507L11.88 15.0352C12.088 15.0774 12.192 15.1619 12.192 15.2886C12.192 15.4435 12.072 15.5209 11.832 15.5209H7.44C7.2 15.5209 7.08 15.4364 7.08 15.2675C7.08 15.1408 7.168 15.0634 7.344 15.0352L7.992 14.9507C8.328 14.9085 8.544 14.8311 8.64 14.7184C8.752 14.6058 8.808 14.4017 8.808 14.1061V8.25669C8.808 8.0596 8.696 7.96105 8.472 7.96105H3.72C3.496 7.96105 3.384 8.0596 3.384 8.25669V14.1061C3.384 14.4017 3.432 14.6058 3.528 14.7184C3.64 14.8311 3.864 14.9085 4.2 14.9507L4.848 15.0352C5.024 15.0634 5.112 15.1408 5.112 15.2675C5.112 15.4364 4.992 15.5209 4.752 15.5209H0.36Z" fill="#06414F"/>
<path d="M15.4776 28.7969C15.2376 28.7969 15.1176 28.6532 15.1176 28.3659C15.1176 28.0786 15.2216 27.9219 15.4296 27.8957L16.5096 27.6215C16.8296 27.5431 17.0456 27.4125 17.1576 27.2297C17.2696 27.0207 17.3256 26.642 17.3256 26.0935V2.58584C17.3256 2.22017 17.2776 1.95897 17.1816 1.80225C17.0856 1.64553 16.8856 1.56718 16.5816 1.56718C15.9896 1.56718 15.4056 1.98509 14.8296 2.82092C14.2536 3.65674 13.8776 5.00191 13.7016 6.8564L13.5816 8.14932C13.5496 8.48888 13.4376 8.65865 13.2456 8.65865C13.0056 8.65865 12.9016 8.43664 12.9336 7.9926L13.1496 0.901127C13.1816 0.300376 13.3256 0 13.5816 0C13.6936 0 13.7976 0.0522393 13.8936 0.156718C13.9896 0.235076 14.1496 0.326494 14.3736 0.430973C14.6136 0.535451 14.9896 0.587691 15.5016 0.587691H20.8536C21.3656 0.587691 21.7336 0.535451 21.9576 0.430973C22.1976 0.326494 22.3656 0.235076 22.4616 0.156718C22.5736 0.0522393 22.6776 0 22.7736 0C23.0296 0 23.1736 0.300376 23.2056 0.901127L23.4216 7.9926C23.4536 8.43664 23.3496 8.65865 23.1096 8.65865C22.9176 8.65865 22.8056 8.48888 22.7736 8.14932L22.6536 6.8564C22.4936 5.00191 22.1256 3.65674 21.5496 2.82092C20.9736 1.98509 20.3816 1.56718 19.7736 1.56718C19.4696 1.56718 19.2696 1.64553 19.1736 1.80225C19.0776 1.95897 19.0296 2.22017 19.0296 2.58584V26.0935C19.0296 26.642 19.0856 27.0207 19.1976 27.2297C19.3256 27.4125 19.5416 27.5431 19.8456 27.6215L20.9256 27.8957C21.1336 27.9219 21.2376 28.0786 21.2376 28.3659C21.2376 28.6532 21.1176 28.7969 20.8776 28.7969H15.4776Z" fill="#06414F"/>
<path d="M30.4108 15.7109C29.1148 15.7109 28.0188 15.3871 27.1228 14.7396C26.2268 14.092 25.5468 13.184 25.0828 12.0155C24.6188 10.8329 24.3868 9.43923 24.3868 7.83435C24.3868 6.28578 24.6588 4.9343 25.2028 3.77992C25.7468 2.61145 26.4908 1.71046 27.4348 1.07696C28.3948 0.429376 29.4908 0.105584 30.7228 0.105584C31.3468 0.105584 31.9148 0.161895 32.4268 0.274518C32.9388 0.373064 33.3868 0.506804 33.7708 0.675739C33.9788 0.774284 34.0828 0.922102 34.0828 1.11919L34.1548 4.32895C34.1548 4.56828 34.0588 4.68794 33.8668 4.68794C33.6908 4.68794 33.5788 4.59643 33.5308 4.41342L33.3388 3.77992C32.9868 2.61145 32.5868 1.80901 32.1388 1.3726C31.6908 0.93618 31.0748 0.717973 30.2908 0.717973C29.1228 0.717973 28.1548 1.33036 27.3868 2.55514C26.6348 3.76584 26.2588 5.52558 26.2588 7.83435C26.2588 10.2135 26.6428 12.0296 27.4108 13.2825C28.1948 14.5214 29.1948 15.1408 30.4108 15.1408C31.0668 15.1408 31.5628 15.0141 31.8988 14.7607C32.2348 14.5073 32.4028 14.0357 32.4028 13.3458V8.72126C32.4028 8.42562 32.3468 8.22149 32.2348 8.10887C32.1388 7.99625 31.9228 7.92586 31.5868 7.8977L30.6508 7.81323C30.4428 7.79916 30.3388 7.71469 30.3388 7.55983C30.3388 7.40498 30.4588 7.32755 30.6988 7.32755H35.0908C35.3308 7.32755 35.4508 7.41201 35.4508 7.58095C35.4508 7.70765 35.3628 7.78508 35.1868 7.81323L34.8268 7.85547C34.4748 7.8977 34.2668 7.98217 34.2028 8.10887C34.1388 8.23557 34.1068 8.44674 34.1068 8.74238V14.465C34.1068 14.6199 34.0588 14.7466 33.9628 14.8451C33.8668 14.9296 33.6988 15.0282 33.4588 15.1408C33.0748 15.3097 32.6348 15.4435 32.1388 15.542C31.6428 15.6546 31.0668 15.7109 30.4108 15.7109Z" fill="#06414F"/>
<path d="M20.2384 27.0469C20.1384 27.0469 20.0884 27.0102 20.0884 26.9369C20.0884 26.8769 20.1318 26.8369 20.2184 26.8169L20.4484 26.7769C20.5884 26.7502 20.6784 26.7135 20.7184 26.6669C20.7651 26.6202 20.7884 26.5269 20.7884 26.3869V20.5069C20.7884 20.3669 20.7651 20.2735 20.7184 20.2269C20.6784 20.1802 20.5884 20.1435 20.4484 20.1169L20.2184 20.0769C20.1318 20.0569 20.0884 20.0169 20.0884 19.9569C20.0884 19.8835 20.1384 19.8469 20.2384 19.8469H22.0484C22.1484 19.8469 22.1984 19.8835 22.1984 19.9569C22.1984 20.0169 22.1551 20.0569 22.0684 20.0769L21.8384 20.1169C21.6984 20.1435 21.6051 20.1802 21.5584 20.2269C21.5184 20.2735 21.4984 20.3669 21.4984 20.5069V26.3869C21.4984 26.5269 21.5184 26.6202 21.5584 26.6669C21.6051 26.7135 21.6984 26.7502 21.8384 26.7769L22.0684 26.8169C22.1551 26.8369 22.1984 26.8769 22.1984 26.9369C22.1984 27.0102 22.1484 27.0469 22.0484 27.0469H20.2384ZM25.5387 26.9469C25.512 26.9469 25.482 26.9369 25.4487 26.9169C25.4153 26.8969 25.392 26.8535 25.3787 26.7869L23.8687 20.6569C23.862 20.6102 23.842 20.5902 23.8087 20.5969C23.7753 20.5969 23.7587 20.6202 23.7587 20.6669L23.5587 26.1869C23.552 26.3735 23.582 26.5169 23.6487 26.6169C23.7153 26.7102 23.832 26.7702 23.9987 26.7969L24.1287 26.8169C24.2153 26.8235 24.2587 26.8635 24.2587 26.9369C24.2587 27.0102 24.2087 27.0469 24.1087 27.0469H22.6787C22.5787 27.0469 22.5287 27.0102 22.5287 26.9369C22.5287 26.8635 22.572 26.8235 22.6587 26.8169L22.7887 26.7969C22.962 26.7702 23.0787 26.7102 23.1387 26.6169C23.2053 26.5169 23.242 26.3735 23.2487 26.1869L23.4487 20.5069C23.4553 20.3669 23.4353 20.2735 23.3887 20.2269C23.342 20.1802 23.242 20.1435 23.0887 20.1169L22.8587 20.0769C22.772 20.0569 22.7287 20.0169 22.7287 19.9569C22.7287 19.8835 22.7787 19.8469 22.8787 19.8469H24.0787C24.2853 19.8469 24.412 19.9469 24.4587 20.1469L25.6687 25.1369C25.682 25.1835 25.702 25.2069 25.7287 25.2069C25.762 25.2069 25.782 25.1835 25.7887 25.1369L27.0487 20.0969C27.0887 19.9302 27.1953 19.8469 27.3687 19.8469H28.5487C28.6487 19.8469 28.6987 19.8835 28.6987 19.9569C28.6987 20.0169 28.6553 20.0569 28.5687 20.0769L28.3387 20.1169C28.1987 20.1435 28.1053 20.1802 28.0587 20.2269C28.012 20.2735 27.992 20.3669 27.9987 20.5069L28.1987 26.3869C28.2053 26.5269 28.2287 26.6202 28.2687 26.6669C28.3087 26.7135 28.3987 26.7502 28.5387 26.7769L28.7687 26.8169C28.8553 26.8369 28.8987 26.8769 28.8987 26.9369C28.8987 27.0102 28.8487 27.0469 28.7487 27.0469H26.9387C26.8387 27.0469 26.7887 27.0102 26.7887 26.9369C26.7887 26.8769 26.832 26.8369 26.9187 26.8169L27.1487 26.7769C27.2887 26.7502 27.382 26.7135 27.4287 26.6669C27.4753 26.6202 27.4953 26.5269 27.4887 26.3869L27.3187 20.6669C27.3187 20.6202 27.302 20.5969 27.2687 20.5969C27.242 20.5902 27.222 20.6069 27.2087 20.6469L25.6887 26.7869C25.6753 26.8535 25.652 26.8969 25.6187 26.9169C25.592 26.9369 25.5653 26.9469 25.5387 26.9469ZM29.3009 27.0469C29.2009 27.0469 29.1509 27.0102 29.1509 26.9369C29.1509 26.8769 29.1943 26.8369 29.2809 26.8169L29.5109 26.7769C29.6509 26.7502 29.7409 26.7135 29.7809 26.6669C29.8276 26.6202 29.8509 26.5269 29.8509 26.3869V20.5069C29.8509 20.3669 29.8276 20.2735 29.7809 20.2269C29.7409 20.1802 29.6509 20.1435 29.5109 20.1169L29.2809 20.0769C29.1943 20.0569 29.1509 20.0169 29.1509 19.9569C29.1509 19.8835 29.2009 19.8469 29.3009 19.8469H32.6609C32.8143 19.8469 32.8976 19.9235 32.9109 20.0769L32.9909 21.7369C33.0043 21.8502 32.9609 21.9069 32.8609 21.9069C32.7809 21.9069 32.7343 21.8635 32.7209 21.7769L32.6609 21.4069C32.5876 20.9535 32.4376 20.6235 32.2109 20.4169C31.9843 20.2035 31.6709 20.0969 31.2709 20.0969C31.0043 20.0969 30.8176 20.1369 30.7109 20.2169C30.6109 20.2902 30.5609 20.4235 30.5609 20.6169V23.0269C30.5609 23.1202 30.6076 23.1669 30.7009 23.1669H31.2009C31.4943 23.1669 31.6743 23.0102 31.7409 22.6969L31.8409 22.1969C31.8676 22.0969 31.9243 22.0535 32.0109 22.0669C32.0843 22.0802 32.1209 22.1369 32.1209 22.2369V24.4869C32.1209 24.5869 32.0843 24.6435 32.0109 24.6569C31.9243 24.6702 31.8676 24.6269 31.8409 24.5269L31.7409 24.0369C31.6943 23.8035 31.6276 23.6502 31.5409 23.5769C31.4609 23.5035 31.3443 23.4669 31.1909 23.4669H30.7009C30.6076 23.4669 30.5609 23.5135 30.5609 23.6069V26.1169C30.5609 26.3569 30.6209 26.5302 30.7409 26.6369C30.8676 26.7435 31.0943 26.7969 31.4209 26.7969C31.7543 26.7969 32.0376 26.7135 32.2709 26.5469C32.5109 26.3735 32.6776 26.0535 32.7709 25.5869L32.8909 24.9969C32.9109 24.9102 32.9609 24.8669 33.0409 24.8669C33.1343 24.8669 33.1743 24.9235 33.1609 25.0369L33.0609 26.8169C33.0476 26.9702 32.9643 27.0469 32.8109 27.0469H29.3009ZM35.5314 27.0469C35.4314 27.0469 35.3814 27.0102 35.3814 26.9369C35.3814 26.8769 35.4247 26.8369 35.5114 26.8169L35.7414 26.7769C35.8814 26.7502 35.9714 26.7135 36.0114 26.6669C36.0581 26.6202 36.0814 26.5269 36.0814 26.3869V20.5069C36.0814 20.3669 36.0581 20.2735 36.0114 20.2269C35.9714 20.1802 35.8814 20.1435 35.7414 20.1169L35.5114 20.0769C35.4247 20.0569 35.3814 20.0169 35.3814 19.9569C35.3814 19.8835 35.4314 19.8469 35.5314 19.8469H37.6214C38.0147 19.8469 38.3614 19.9335 38.6614 20.1069C38.9614 20.2735 39.1947 20.5069 39.3614 20.8069C39.5281 21.1069 39.6114 21.4535 39.6114 21.8469C39.6114 22.2269 39.5281 22.5635 39.3614 22.8569C39.1947 23.1502 38.9647 23.3802 38.6714 23.5469C38.3781 23.7069 38.0381 23.7869 37.6514 23.7869H36.9314C36.8381 23.7869 36.7914 23.8335 36.7914 23.9269V26.3469C36.7914 26.4869 36.8181 26.5835 36.8714 26.6369C36.9247 26.6835 37.0447 26.7235 37.2314 26.7569L37.6014 26.8169C37.6747 26.8302 37.7114 26.8669 37.7114 26.9269C37.7114 27.0069 37.6614 27.0469 37.5614 27.0469H35.5314ZM36.7914 22.9869C36.7914 23.3535 37.0147 23.5369 37.4614 23.5369C37.8947 23.5369 38.2347 23.3835 38.4814 23.0769C38.7347 22.7702 38.8614 22.3502 38.8614 21.8169C38.8614 21.2702 38.7347 20.8469 38.4814 20.5469C38.2281 20.2469 37.8681 20.0969 37.4014 20.0969C36.9947 20.0969 36.7914 20.2302 36.7914 20.4969V22.9869ZM42.5496 27.1369C42.2296 27.1369 41.9296 27.0435 41.6496 26.8569C41.3696 26.6635 41.1229 26.4002 40.9096 26.0669C40.7029 25.7335 40.5396 25.3435 40.4196 24.8969C40.3063 24.4435 40.2496 23.9569 40.2496 23.4369C40.2496 22.9169 40.3063 22.4335 40.4196 21.9869C40.5396 21.5402 40.7029 21.1502 40.9096 20.8169C41.1229 20.4769 41.3696 20.2135 41.6496 20.0269C41.9296 19.8402 42.2296 19.7469 42.5496 19.7469C42.8696 19.7469 43.1663 19.8402 43.4396 20.0269C43.7196 20.2135 43.9663 20.4769 44.1796 20.8169C44.3929 21.1502 44.5563 21.5402 44.6696 21.9869C44.7896 22.4335 44.8496 22.9169 44.8496 23.4369C44.8496 23.9569 44.7896 24.4435 44.6696 24.8969C44.5563 25.3435 44.3929 25.7335 44.1796 26.0669C43.9663 26.4002 43.7196 26.6635 43.4396 26.8569C43.1663 27.0435 42.8696 27.1369 42.5496 27.1369ZM42.5496 26.8669C43.0229 26.8669 43.3929 26.5835 43.6596 26.0169C43.9263 25.4502 44.0596 24.5902 44.0596 23.4369C44.0596 22.2835 43.9263 21.4269 43.6596 20.8669C43.3929 20.3002 43.0229 20.0169 42.5496 20.0169C42.0829 20.0169 41.7129 20.3002 41.4396 20.8669C41.1729 21.4269 41.0396 22.2835 41.0396 23.4369C41.0396 24.5902 41.1729 25.4502 41.4396 26.0169C41.7129 26.5835 42.0829 26.8669 42.5496 26.8669ZM49.6523 27.1369C49.0723 27.1369 48.7023 26.7569 48.5423 25.9969L48.3123 24.8869C48.239 24.5269 48.1557 24.2535 48.0623 24.0669C47.9757 23.8802 47.8523 23.7535 47.6923 23.6869C47.539 23.6202 47.3257 23.5869 47.0523 23.5869C46.959 23.5869 46.8857 23.6135 46.8323 23.6669C46.779 23.7135 46.7523 23.7735 46.7523 23.8469V26.3469C46.7523 26.4869 46.779 26.5835 46.8323 26.6369C46.8857 26.6835 47.0057 26.7235 47.1923 26.7569L47.5623 26.8169C47.6357 26.8302 47.6723 26.8669 47.6723 26.9269C47.6723 27.0069 47.6223 27.0469 47.5223 27.0469H45.4923C45.3923 27.0469 45.3423 27.0102 45.3423 26.9369C45.3423 26.8769 45.3857 26.8369 45.4723 26.8169L45.7023 26.7769C45.8423 26.7502 45.9323 26.7135 45.9723 26.6669C46.019 26.6202 46.0423 26.5269 46.0423 26.3869V20.5069C46.0423 20.3669 46.019 20.2735 45.9723 20.2269C45.9323 20.1802 45.8423 20.1435 45.7023 20.1169L45.4723 20.0769C45.3857 20.0569 45.3423 20.0169 45.3423 19.9569C45.3423 19.8835 45.3923 19.8469 45.4923 19.8469H47.5223C47.9157 19.8469 48.2657 19.9235 48.5723 20.0769C48.879 20.2302 49.119 20.4435 49.2923 20.7169C49.4657 20.9835 49.5523 21.2935 49.5523 21.6469C49.5523 22.0669 49.4257 22.4469 49.1723 22.7869C48.919 23.1202 48.599 23.3569 48.2123 23.4969C48.1657 23.5102 48.139 23.5335 48.1323 23.5669C48.1323 23.5935 48.1557 23.6169 48.2023 23.6369C48.4157 23.7369 48.5823 23.8769 48.7023 24.0569C48.829 24.2369 48.9257 24.4769 48.9923 24.7769L49.2123 25.7969C49.2857 26.1435 49.3723 26.3902 49.4723 26.5369C49.5723 26.6835 49.699 26.7569 49.8523 26.7569C49.9057 26.7569 49.9523 26.7502 49.9923 26.7369C50.039 26.7169 50.0957 26.6835 50.1623 26.6369C50.2157 26.6035 50.2657 26.5969 50.3123 26.6169C50.359 26.6302 50.3823 26.6635 50.3823 26.7169C50.3823 26.8302 50.309 26.9302 50.1623 27.0169C50.0157 27.0969 49.8457 27.1369 49.6523 27.1369ZM47.4223 23.3369C47.8757 23.3369 48.219 23.1869 48.4523 22.8869C48.6857 22.5802 48.8023 22.1735 48.8023 21.6669C48.8023 21.1735 48.6657 20.7902 48.3923 20.5169C48.1257 20.2369 47.7557 20.0969 47.2823 20.0969C46.929 20.0969 46.7523 20.2302 46.7523 20.4969V22.7869C46.7523 23.1535 46.9757 23.3369 47.4223 23.3369ZM51.264 27.0469C51.164 27.0469 51.114 27.0102 51.114 26.9369C51.114 26.8635 51.1573 26.8235 51.244 26.8169L51.694 26.7469C51.8273 26.7269 51.9173 26.6935 51.964 26.6469C52.0107 26.5935 52.034 26.4969 52.034 26.3569V20.3569C52.034 20.2635 52.014 20.1969 51.974 20.1569C51.934 20.1169 51.8507 20.0969 51.724 20.0969C51.4773 20.0969 51.234 20.2035 50.994 20.4169C50.754 20.6302 50.5973 20.9735 50.524 21.4469L50.474 21.7769C50.4607 21.8635 50.414 21.9069 50.334 21.9069C50.234 21.9069 50.1907 21.8502 50.204 21.7369L50.294 19.9269C50.3073 19.7735 50.3673 19.6969 50.474 19.6969C50.5207 19.6969 50.564 19.7102 50.604 19.7369C50.644 19.7569 50.7107 19.7802 50.804 19.8069C50.904 19.8335 51.0607 19.8469 51.274 19.8469H53.504C53.7173 19.8469 53.8707 19.8335 53.964 19.8069C54.064 19.7802 54.134 19.7569 54.174 19.7369C54.2207 19.7102 54.264 19.6969 54.304 19.6969C54.4107 19.6969 54.4707 19.7735 54.484 19.9269L54.574 21.7369C54.5873 21.8502 54.544 21.9069 54.444 21.9069C54.364 21.9069 54.3173 21.8635 54.304 21.7769L54.254 21.4469C54.1873 20.9735 54.034 20.6302 53.794 20.4169C53.554 20.2035 53.3073 20.0969 53.054 20.0969C52.9273 20.0969 52.844 20.1169 52.804 20.1569C52.764 20.1969 52.744 20.2635 52.744 20.3569V26.3569C52.744 26.4969 52.7673 26.5935 52.814 26.6469C52.8673 26.6935 52.9573 26.7269 53.084 26.7469L53.534 26.8169C53.6207 26.8235 53.664 26.8635 53.664 26.9369C53.664 27.0102 53.614 27.0469 53.514 27.0469H51.264ZM54.2434 27.0469C54.1434 27.0469 54.0934 27.0135 54.0934 26.9469C54.0934 26.8802 54.1401 26.8369 54.2334 26.8169L54.3834 26.7869C54.5168 26.7602 54.6168 26.6969 54.6834 26.5969C54.7501 26.4902 54.8068 26.3435 54.8534 26.1569L56.4034 19.9069C56.4168 19.8402 56.4368 19.7969 56.4634 19.7769C56.4968 19.7569 56.5268 19.7469 56.5534 19.7469C56.5868 19.7469 56.6168 19.7569 56.6434 19.7769C56.6768 19.7969 56.7001 19.8402 56.7134 19.9069L58.2934 26.2469C58.3401 26.4335 58.3934 26.5635 58.4534 26.6369C58.5134 26.7102 58.6068 26.7602 58.7334 26.7869L58.8834 26.8169C58.9768 26.8369 59.0234 26.8802 59.0234 26.9469C59.0234 27.0135 58.9734 27.0469 58.8734 27.0469H57.1634C57.0701 27.0469 57.0234 27.0102 57.0234 26.9369C57.0234 26.8635 57.0801 26.8235 57.1934 26.8169L57.3834 26.7969C57.4968 26.7835 57.5668 26.7469 57.5934 26.6869C57.6268 26.6269 57.6268 26.5235 57.5934 26.3769L57.2134 24.8269C57.1734 24.6535 57.0634 24.5669 56.8834 24.5669H55.8334C55.6601 24.5669 55.5501 24.6535 55.5034 24.8269L55.1634 26.1669C55.0634 26.5469 55.1634 26.7569 55.4634 26.7969L55.6134 26.8169C55.7268 26.8369 55.7834 26.8769 55.7834 26.9369C55.7834 27.0102 55.7368 27.0469 55.6434 27.0469H54.2434ZM55.8034 24.2669H56.9034C57.0101 24.2669 57.0534 24.2102 57.0334 24.0969L56.3934 21.4169H56.3434L55.6734 24.0969C55.6534 24.2102 55.6968 24.2669 55.8034 24.2669ZM59.0861 27.0469C58.9861 27.0469 58.9361 27.0102 58.9361 26.9369C58.9361 26.8769 58.9794 26.8369 59.0661 26.8169L59.2961 26.7769C59.4361 26.7502 59.5261 26.7135 59.5661 26.6669C59.6128 26.6202 59.6361 26.5269 59.6361 26.3869V20.5069C59.6361 20.3669 59.6128 20.2735 59.5661 20.2269C59.5261 20.1802 59.4361 20.1435 59.2961 20.1169L59.0661 20.0769C58.9794 20.0569 58.9361 20.0169 58.9361 19.9569C58.9361 19.8835 58.9861 19.8469 59.0861 19.8469H60.9161C61.0161 19.8469 61.0661 19.8869 61.0661 19.9669C61.0661 20.0269 61.0294 20.0635 60.9561 20.0769L60.6861 20.1169C60.5461 20.1369 60.4528 20.1735 60.4061 20.2269C60.3661 20.2802 60.3461 20.3769 60.3461 20.5169V26.1169C60.3461 26.3569 60.4128 26.5302 60.5461 26.6369C60.6861 26.7435 60.8594 26.7969 61.0661 26.7969C61.2194 26.7969 61.3761 26.7669 61.5361 26.7069C61.7028 26.6402 61.8528 26.5202 61.9861 26.3469C62.1194 26.1669 62.2194 25.9069 62.2861 25.5669L62.4161 24.8969C62.4361 24.8102 62.4861 24.7669 62.5661 24.7669C62.6594 24.7669 62.6994 24.8235 62.6861 24.9369L62.5661 26.8169C62.5528 26.9702 62.4694 27.0469 62.3161 27.0469H59.0861Z" fill="#06414F"/>
</svg>
