<svg width="24" height="24" viewBox="0 0 24 24" fill="none" xmlns="http://www.w3.org/2000/svg">
<path d="M9.25313 22L8.85313 18.8C8.63646 18.7167 8.43246 18.6167 8.24113 18.5C8.04979 18.3833 7.86213 18.2583 7.67813 18.125L4.70312 19.375L1.95312 14.625L4.52813 12.675C4.51146 12.5583 4.50312 12.446 4.50312 12.338V11.663C4.50312 11.5543 4.51146 11.4417 4.52813 11.325L1.95312 9.375L4.70312 4.625L7.67813 5.875C7.86146 5.74167 8.05313 5.61667 8.25313 5.5C8.45312 5.38333 8.65313 5.28333 8.85313 5.2L9.25313 2H14.7531L15.1531 5.2C15.3698 5.28333 15.5741 5.38333 15.7661 5.5C15.9581 5.61667 16.1455 5.74167 16.3281 5.875L19.3031 4.625L22.0531 9.375L19.4781 11.325C19.4948 11.4417 19.5031 11.5543 19.5031 11.663V12.337C19.5031 12.4457 19.4865 12.5583 19.4531 12.675L22.0281 14.625L19.2781 19.375L16.3281 18.125C16.1448 18.2583 15.9531 18.3833 15.7531 18.5C15.5531 18.6167 15.3531 18.7167 15.1531 18.8L14.7531 22H9.25313ZM11.0031 20H12.9781L13.3281 17.35C13.8448 17.2167 14.3241 17.021 14.7661 16.763C15.2081 16.505 15.6121 16.1923 15.9781 15.825L18.4531 16.85L19.4281 15.15L17.2781 13.525C17.3615 13.2917 17.4198 13.046 17.4531 12.788C17.4865 12.53 17.5031 12.2673 17.5031 12C17.5031 11.7327 17.4865 11.4703 17.4531 11.213C17.4198 10.9557 17.3615 10.7097 17.2781 10.475L19.4281 8.85L18.4531 7.15L15.9781 8.2C15.6115 7.81667 15.2075 7.496 14.7661 7.238C14.3248 6.98 13.8455 6.784 13.3281 6.65L13.0031 4H11.0281L10.6781 6.65C10.1615 6.78333 9.68246 6.97933 9.24113 7.238C8.79979 7.49667 8.39546 7.809 8.02812 8.175L5.55313 7.15L4.57812 8.85L6.72812 10.45C6.64479 10.7 6.58646 10.95 6.55313 11.2C6.51979 11.45 6.50313 11.7167 6.50313 12C6.50313 12.2667 6.51979 12.525 6.55313 12.775C6.58646 13.025 6.64479 13.275 6.72812 13.525L4.57812 15.15L5.55313 16.85L8.02812 15.8C8.39479 16.1833 8.79913 16.5043 9.24113 16.763C9.68313 17.0217 10.1621 17.2173 10.6781 17.35L11.0031 20ZM12.0531 15.5C13.0198 15.5 13.8448 15.1583 14.5281 14.475C15.2115 13.7917 15.5531 12.9667 15.5531 12C15.5531 11.0333 15.2115 10.2083 14.5281 9.525C13.8448 8.84167 13.0198 8.5 12.0531 8.5C11.0698 8.5 10.2405 8.84167 9.56513 9.525C8.88979 10.2083 8.55246 11.0333 8.55313 12C8.55379 12.9667 8.89146 13.7917 9.56612 14.475C10.2408 15.1583 11.0698 15.5 12.0531 15.5Z" fill="#B7B7B7"/>
</svg>
